<svg width="27" height="27" viewBox="0 0 27 27" fill="none" xmlns="http://www.w3.org/2000/svg">
<path d="M21.6786 5.99625C20.1824 5.29875 18.5624 4.7925 16.8749 4.5C16.8452 4.50042 16.8169 4.51255 16.7961 4.53375C16.5936 4.905 16.3574 5.38875 16.1999 5.76C14.41 5.49017 12.5898 5.49017 10.7999 5.76C10.6424 5.3775 10.4061 4.905 10.1924 4.53375C10.1811 4.51125 10.1474 4.5 10.1136 4.5C8.42614 4.7925 6.81739 5.29875 5.30989 5.99625C5.29864 5.99625 5.28739 6.0075 5.27614 6.01875C2.21614 10.5975 1.37239 15.0525 1.78864 19.4625C1.78864 19.485 1.79989 19.5075 1.82239 19.5188C3.84739 21.0037 5.79364 21.9037 7.71739 22.5C7.75114 22.5112 7.78489 22.5 7.79614 22.4775C8.24614 21.8587 8.65114 21.2062 8.99989 20.52C9.02239 20.475 8.99989 20.43 8.95489 20.4187C8.31364 20.1712 7.70614 19.8788 7.10989 19.5413C7.06489 19.5188 7.06489 19.4513 7.09864 19.4175C7.22239 19.3275 7.34614 19.2263 7.46989 19.1363C7.49239 19.1138 7.52614 19.1138 7.54864 19.125C11.4186 20.8913 15.5924 20.8913 19.4174 19.125C19.4399 19.1138 19.4736 19.1138 19.4961 19.1363C19.6199 19.2375 19.7436 19.3275 19.8674 19.4288C19.9124 19.4625 19.9124 19.53 19.8561 19.5525C19.2711 19.9012 18.6524 20.1825 18.0111 20.43C17.9661 20.4412 17.9549 20.4975 17.9661 20.5312C18.3261 21.2175 18.7311 21.87 19.1699 22.4888C19.2036 22.5 19.2374 22.5112 19.2711 22.5C21.2061 21.9037 23.1524 21.0037 25.1774 19.5188C25.1999 19.5075 25.2111 19.485 25.2111 19.4625C25.7061 14.3662 24.3899 9.945 21.7236 6.01875C21.7124 6.0075 21.7011 5.99625 21.6786 5.99625ZM9.58489 16.7738C8.42614 16.7738 7.45864 15.705 7.45864 14.3888C7.45864 13.0725 8.40364 12.0037 9.58489 12.0037C10.7774 12.0037 11.7224 13.0837 11.7111 14.3888C11.7111 15.705 10.7661 16.7738 9.58489 16.7738ZM17.4261 16.7738C16.2674 16.7738 15.2999 15.705 15.2999 14.3888C15.2999 13.0725 16.2449 12.0037 17.4261 12.0037C18.6186 12.0037 19.5636 13.0837 19.5524 14.3888C19.5524 15.705 18.6186 16.7738 17.4261 16.7738Z" fill="#9CB9C8"/>
</svg>
